<svg width="306" height="73" viewBox="0 0 306 73" fill="none" xmlns="http://www.w3.org/2000/svg">
<mask id="mask0" mask-type="alpha" maskUnits="userSpaceOnUse" x="85" y="0" width="221" height="73">
<rect x="85" width="221" height="73" fill="#FF800A"/>
</mask>
<g mask="url(#mask0)">
<rect width="306" height="73" rx="36.5" fill="#FF800A"/>
</g>
<rect x="2.5" y="2.5" width="301" height="68" rx="34" stroke="#FF800A" stroke-width="5"/>
<path d="M154.501 24.296C157.789 24.296 160.213 24.908 161.773 26.132C163.357 27.356 164.149 29.216 164.149 31.712C164.149 33.032 163.897 34.148 163.393 35.06C162.913 35.948 162.289 36.68 161.521 37.256C160.753 37.808 159.949 38.252 159.109 38.588L166.309 50H161.845L155.653 39.596H151.189V50H147.301V24.296H154.501ZM154.249 27.608H151.189V36.356H154.429C156.421 36.356 157.873 35.984 158.785 35.24C159.697 34.472 160.153 33.344 160.153 31.856C160.153 30.32 159.673 29.228 158.713 28.58C157.753 27.932 156.265 27.608 154.249 27.608ZM177.174 30.236C179.598 30.236 181.41 30.776 182.61 31.856C183.834 32.912 184.446 34.58 184.446 36.86V50H181.746L180.99 47.3H180.846C180.006 48.356 179.118 49.136 178.182 49.64C177.27 50.12 175.998 50.36 174.366 50.36C172.614 50.36 171.162 49.892 170.01 48.956C168.858 47.996 168.282 46.508 168.282 44.492C168.282 42.524 169.026 41.024 170.514 39.992C172.002 38.96 174.294 38.396 177.39 38.3L180.702 38.192V37.112C180.702 35.696 180.378 34.7 179.73 34.124C179.082 33.524 178.17 33.224 176.994 33.224C176.01 33.224 175.062 33.368 174.15 33.656C173.238 33.944 172.362 34.292 171.522 34.7L170.298 31.928C171.21 31.448 172.254 31.052 173.43 30.74C174.63 30.404 175.878 30.236 177.174 30.236ZM180.666 40.676L178.074 40.748C175.866 40.844 174.33 41.216 173.466 41.864C172.626 42.488 172.206 43.376 172.206 44.528C172.206 45.536 172.506 46.268 173.106 46.724C173.706 47.18 174.486 47.408 175.446 47.408C176.934 47.408 178.17 46.988 179.154 46.148C180.162 45.308 180.666 44.048 180.666 42.368V40.676ZM200.15 30.236C202.406 30.236 204.134 30.8 205.334 31.928C206.534 33.056 207.134 34.868 207.134 37.364V50H203.354V37.904C203.354 34.88 202.022 33.368 199.358 33.368C197.366 33.368 195.998 33.956 195.254 35.132C194.51 36.308 194.138 38 194.138 40.208V50H190.322V30.596H193.346L193.886 33.188H194.102C194.726 32.18 195.578 31.436 196.658 30.956C197.762 30.476 198.926 30.236 200.15 30.236ZM216.778 22.64V36.32C216.778 36.8 216.754 37.376 216.706 38.048C216.658 38.72 216.622 39.32 216.598 39.848H216.706C216.97 39.488 217.33 39.02 217.786 38.444C218.266 37.844 218.686 37.352 219.046 36.968L224.986 30.596H229.414L221.602 38.912L229.918 50H225.418L219.01 41.324L216.778 43.196V50H212.998V22.64H216.778Z" fill="white"/>
<path d="M58.4819 42.872C58.4819 45.152 57.6539 46.976 55.9979 48.344C54.3659 49.688 52.0379 50.36 49.0139 50.36C46.3019 50.36 43.8779 49.844 41.7419 48.812V43.736C42.9659 44.264 44.2259 44.756 45.5219 45.212C46.8419 45.644 48.1499 45.86 49.4459 45.86C50.7899 45.86 51.7379 45.608 52.2899 45.104C52.8659 44.576 53.1539 43.916 53.1539 43.124C53.1539 42.476 52.9259 41.924 52.4699 41.468C52.0379 41.012 51.4499 40.592 50.7059 40.208C49.9619 39.8 49.1099 39.368 48.1499 38.912C47.5499 38.624 46.9019 38.288 46.2059 37.904C45.5099 37.496 44.8379 37.004 44.1899 36.428C43.5659 35.828 43.0499 35.108 42.6419 34.268C42.2339 33.428 42.0299 32.42 42.0299 31.244C42.0299 28.94 42.8099 27.152 44.3699 25.88C45.9299 24.584 48.0539 23.936 50.7419 23.936C52.0859 23.936 53.3579 24.092 54.5579 24.404C55.7819 24.716 57.0539 25.16 58.3739 25.736L56.6099 29.984C55.4339 29.504 54.3779 29.132 53.4419 28.868C52.5059 28.604 51.5459 28.472 50.5619 28.472C49.5299 28.472 48.7379 28.712 48.1859 29.192C47.6339 29.672 47.3579 30.296 47.3579 31.064C47.3579 31.976 47.7659 32.696 48.5819 33.224C49.3979 33.752 50.6099 34.4 52.2179 35.168C53.5379 35.792 54.6539 36.44 55.5659 37.112C56.5019 37.784 57.2219 38.576 57.7259 39.488C58.2299 40.4 58.4819 41.528 58.4819 42.872Z" fill="#FF800A"/>
</svg>
